<svg
          preserveAspectRatio="xMidYMid meet"
          data-bbox="18 64 164 72"
          viewBox="18 64 164 72"
          xmlns="http://www.w3.org/2000/svg"
          data-type="color"
          role="img"
        >
          <g>
            <path
              d="M166.5 64h-79C79 64 72 70.9 72 79.4v41.2c0 8.5 6.9 15.4 15.5 15.4h79c8.6 0 15.5-6.9 15.5-15.4V79.4c0-8.4-6.9-15.4-15.5-15.4zm0 3.6c2.7 0 5.2.9 7.2 2.4l-46.6 35.5-46.7-35.4c2-1.5 4.5-2.4 7.2-2.4 0-.1 78.9-.1 78.9-.1zm-90.8 53.1V79.4c0-3.2 1.3-6 3.3-8.2l36 27.5-33.3 32.2c-3.6-2.1-6-5.9-6-10.2zm11.8 11.8c-1.5 0-2.8-.3-4.1-.7l33.1-31.9 10.5 8 11.6-8.8 32.2 32.6c-1.3.5-2.7.8-4.2.8H87.5zm90.9-11.8c0 4.3-2.4 8.2-5.9 10.1L140 98l35.1-26.6c2 2.1 3.3 5 3.3 8.2v41.1z"
              fill="#006837"
              data-color="1"
            ></path>
            <path
              d="M64.9 85.6H19.8c-1 0-1.8.8-1.8 1.8s.8 1.8 1.8 1.8h45.1c1 0 1.8-.8 1.8-1.8s-.8-1.8-1.8-1.8z"
              fill="#006837"
              data-color="1"
            ></path>
            <path
              d="M64.9 96.1h-36c-1 0-1.8.8-1.8 1.8s.8 1.8 1.8 1.8h36c1 0 1.8-.8 1.8-1.8s-.8-1.8-1.8-1.8z"
              fill="#006837"
              data-color="1"
            ></path>
            <path
              d="M64.9 108.3H37.4c-1 0-1.8.8-1.8 1.8s.8 1.8 1.8 1.8h27.5c1 0 1.8-.8 1.8-1.8s-.8-1.8-1.8-1.8z"
              fill="#006837"
              data-color="1"
            ></path>
          </g>
        </svg>