<?xml version="1.0" encoding="iso-8859-1"?>
<!-- Generator: Adobe Illustrator 19.0.0, SVG Export Plug-In . SVG Version: 6.00 Build 0)  -->
<svg version="1.1" id="Capa_1" xmlns="http://www.w3.org/2000/svg" xmlns:xlink="http://www.w3.org/1999/xlink" x="0px" y="0px"
	 viewBox="0 0 512.085 512.085" style="enable-background:new 0 0 512.085 512.085;" xml:space="preserve">
<g>
	<g>
		<path d="M480.047,31.999c0-10.389-5.056-20.16-13.568-26.155c-8.448-5.973-19.392-7.488-29.184-3.989L181.316,93.311
			c-12.715,4.501-21.269,16.619-21.269,30.123v289.344c-16.512-10.325-40.789-13.696-66.368-7.403
			c-24.043,5.888-44.459,19.563-54.656,36.523c-6.549,10.901-8.533,22.421-5.781,33.344c5.781,22.805,30.549,36.843,60.907,36.843
			c8.213,0,16.832-1.045,25.579-3.179c24.021-5.867,44.437-19.52,54.656-36.48c4.629-7.723,6.869-15.765,6.869-23.701
			c0.021-0.235,0.128-0.384,0.128-0.597V210.175l277.333-99.051V348.8c-16.533-10.325-40.789-13.675-66.368-7.424
			c-24.043,5.888-44.459,19.563-54.656,36.523c-6.549,10.901-8.533,22.421-5.781,33.344c5.781,22.805,30.549,36.843,60.907,36.843
			c8.213,0,16.832-1.045,25.579-3.179c24.021-5.867,44.437-19.52,54.656-36.48c6.037-10.048,8-20.629,6.144-30.784
			c0.555-1.301,0.853-2.709,0.853-4.181V31.999z"/>
	</g>
</g>
<g>
</g>
<g>
</g>
<g>
</g>
<g>
</g>
<g>
</g>
<g>
</g>
<g>
</g>
<g>
</g>
<g>
</g>
<g>
</g>
<g>
</g>
<g>
</g>
<g>
</g>
<g>
</g>
<g>
</g>
</svg>
